<?xml version="1.0" standalone="no"?>
<!DOCTYPE svg PUBLIC "-//W3C//DTD SVG 20010904//EN"
 "http://www.w3.org/TR/2001/REC-SVG-20010904/DTD/svg10.dtd">
<svg version="1.0" xmlns="http://www.w3.org/2000/svg"
 width="306.000000pt" height="206.000000pt" viewBox="0 0 306.000000 206.000000"
 preserveAspectRatio="xMidYMid meet" fill="#FFFFFF">
 <rect x="3" y="2" width="98%" height="97%" fill="#151618" />
<g transform="translate(0.000000,206.000000) scale(0.100000,-0.100000)"
fill="#FFFFFF" stroke="none">
<path d="M0 1030 l0 -1030 1530 0 1530 0 0 1030 0 1030 -1530 0 -1530 0 0
-1030z m2123 713 l547 -6 0 -709 0 -708 -1140 0 -1140 0 0 710 0 710 358 3
c196 1 463 3 592 5 129 1 481 -1 783 -5z"/>
<path d="M440 1030 l0 -660 1090 0 1090 0 0 660 0 660 -1090 0 -1090 0 0 -660z
m1418 313 c23 -20 37 -81 24 -101 -7 -11 -19 -7 -57 17 -50 31 -133 49 -180
37 -34 -9 -55 -58 -55 -128 0 -73 19 -98 72 -98 23 0 54 9 72 19 44 28 60 15
60 -48 0 -34 -6 -57 -17 -68 -15 -15 -19 -15 -55 1 -49 22 -96 14 -119 -20
-20 -32 -12 -140 16 -196 19 -38 19 -39 -2 -50 -28 -15 -176 -3 -195 16 -12
11 -9 17 16 34 l29 21 7 180 c10 236 3 302 -36 347 -42 47 -31 50 238 52 141
2 164 0 182 -15z m560 0 c23 -20 37 -81 24 -101 -7 -11 -19 -7 -57 17 -50 31
-133 49 -180 37 -34 -9 -55 -58 -55 -128 0 -73 19 -98 72 -98 23 0 55 9 73 20
29 18 34 18 45 5 19 -23 17 -102 -3 -122 -15 -15 -19 -15 -55 1 -49 22 -96 14
-119 -20 -19 -30 -13 -129 13 -194 23 -56 12 -63 -95 -56 -104 6 -128 22 -83
54 l29 21 7 180 c10 236 3 302 -36 347 -42 47 -31 50 238 52 141 2 164 0 182
-15z m-1168 -10 c-1 -27 -57 -274 -65 -281 -3 -3 -15 0 -27 7 -19 12 -29 5
-137 -103 -64 -64 -120 -116 -125 -116 -5 0 -22 14 -39 31 l-29 31 -98 -97
c-62 -62 -102 -95 -110 -90 -8 5 20 40 86 106 70 71 95 102 88 109 -8 8 -22 4
-49 -14 -44 -30 -62 -32 -93 -10 -41 28 -45 59 -18 122 13 32 27 65 30 75 3 9
10 17 16 17 17 0 11 -33 -15 -82 -14 -26 -25 -56 -25 -67 0 -26 26 -51 54 -51
31 0 68 40 56 60 -7 12 19 43 111 136 105 105 118 122 105 133 -32 27 -15 37
117 68 161 37 167 38 167 16z"/>
<path d="M1091 1293 l-103 -25 88 -89 c49 -49 91 -85 95 -81 6 7 49 192 49
212 0 13 -7 12 -129 -17z"/>
<path d="M971 1196 c-22 -23 -22 -26 -12 -136 6 -62 12 -115 14 -116 2 -2 17
11 35 29 l31 32 -9 94 c-10 111 -24 134 -59 97z"/>
<path d="M1054 1125 c3 -22 6 -53 6 -70 l0 -30 32 33 33 32 -39 38 -38 37 6
-40z"/>
<path d="M892 1117 l-33 -34 7 -97 c8 -107 21 -131 54 -101 22 19 25 85 11
208 l-6 58 -33 -34z"/>
<path d="M797 1022 l-27 -28 33 -32 c18 -18 35 -32 37 -32 3 0 3 27 2 60 -2
33 -7 60 -11 60 -4 0 -19 -13 -34 -28z"/>
</g>
</svg>
